<mxfile host="app.diagrams.net" modified="2023-10-12T05:54:48.996Z" agent="Mozilla/5.0 (Windows NT 10.0; Win64; x64) AppleWebKit/537.36 (KHTML, like Gecko) Chrome/117.0.0.0 Safari/537.36" etag="1sQAZed42C8ZvcjsQ50n" version="22.0.4" type="github">
  <diagram name="Page-1" id="52a04d89-c75d-2922-d76d-85b35f80e030">
    <mxGraphModel dx="1500" dy="876" grid="1" gridSize="10" guides="1" tooltips="1" connect="1" arrows="0" fold="1" page="1" pageScale="1" pageWidth="1500" pageHeight="2000" background="none" math="0" shadow="0">
      <root>
        <object label="" id="0">
          <mxCell />
        </object>
        <mxCell id="1" parent="0" />
        <mxCell id="T6F3rSo89JMpLLN8eH_z-1" value="" style="ellipse;whiteSpace=wrap;html=1;aspect=fixed;" vertex="1" parent="1">
          <mxGeometry x="670" y="390" width="80" height="80" as="geometry" />
        </mxCell>
        <mxCell id="T6F3rSo89JMpLLN8eH_z-2" value="" style="ellipse;whiteSpace=wrap;html=1;aspect=fixed;" vertex="1" parent="1">
          <mxGeometry x="670" y="490" width="80" height="80" as="geometry" />
        </mxCell>
        <mxCell id="T6F3rSo89JMpLLN8eH_z-3" value="" style="ellipse;whiteSpace=wrap;html=1;aspect=fixed;" vertex="1" parent="1">
          <mxGeometry x="670" y="590" width="80" height="80" as="geometry" />
        </mxCell>
        <mxCell id="T6F3rSo89JMpLLN8eH_z-4" value="" style="ellipse;whiteSpace=wrap;html=1;aspect=fixed;" vertex="1" parent="1">
          <mxGeometry x="670" y="690" width="80" height="80" as="geometry" />
        </mxCell>
        <mxCell id="T6F3rSo89JMpLLN8eH_z-5" value="" style="ellipse;whiteSpace=wrap;html=1;aspect=fixed;" vertex="1" parent="1">
          <mxGeometry x="670" y="800" width="80" height="80" as="geometry" />
        </mxCell>
        <mxCell id="T6F3rSo89JMpLLN8eH_z-6" value="" style="ellipse;whiteSpace=wrap;html=1;aspect=fixed;" vertex="1" parent="1">
          <mxGeometry x="680" y="900" width="80" height="80" as="geometry" />
        </mxCell>
        <mxCell id="T6F3rSo89JMpLLN8eH_z-7" value="" style="ellipse;whiteSpace=wrap;html=1;aspect=fixed;" vertex="1" parent="1">
          <mxGeometry x="680" y="1000" width="80" height="80" as="geometry" />
        </mxCell>
        <mxCell id="T6F3rSo89JMpLLN8eH_z-8" value="" style="rounded=0;whiteSpace=wrap;html=1;" vertex="1" parent="1">
          <mxGeometry x="110" y="760" width="160" height="50" as="geometry" />
        </mxCell>
        <mxCell id="T6F3rSo89JMpLLN8eH_z-18" value="" style="html=1;dashed=0;whiteSpace=wrap;shape=mxgraph.dfd.dataStoreID;align=left;spacingLeft=3;points=[[0,0],[0.5,0],[1,0],[0,0.5],[1,0.5],[0,1],[0.5,1],[1,1]];" vertex="1" parent="1">
          <mxGeometry x="1020" y="810" width="100" height="30" as="geometry" />
        </mxCell>
        <mxCell id="T6F3rSo89JMpLLN8eH_z-215" value="" style="endArrow=classic;html=1;rounded=0;entryX=0;entryY=0.5;entryDx=0;entryDy=0;exitX=0.109;exitY=-0.048;exitDx=0;exitDy=0;exitPerimeter=0;" edge="1" parent="1" source="T6F3rSo89JMpLLN8eH_z-8" target="T6F3rSo89JMpLLN8eH_z-1">
          <mxGeometry width="50" height="50" relative="1" as="geometry">
            <mxPoint x="120" y="350" as="sourcePoint" />
            <mxPoint x="570" y="110" as="targetPoint" />
            <Array as="points">
              <mxPoint x="127" y="420" />
            </Array>
          </mxGeometry>
        </mxCell>
        <mxCell id="T6F3rSo89JMpLLN8eH_z-216" style="edgeStyle=orthogonalEdgeStyle;rounded=0;orthogonalLoop=1;jettySize=auto;html=1;exitX=0.5;exitY=1;exitDx=0;exitDy=0;" edge="1" parent="1" source="T6F3rSo89JMpLLN8eH_z-1" target="T6F3rSo89JMpLLN8eH_z-1">
          <mxGeometry relative="1" as="geometry" />
        </mxCell>
        <mxCell id="T6F3rSo89JMpLLN8eH_z-225" style="edgeStyle=orthogonalEdgeStyle;rounded=0;orthogonalLoop=1;jettySize=auto;html=1;exitX=1;exitY=1;exitDx=0;exitDy=0;" edge="1" parent="1" source="T6F3rSo89JMpLLN8eH_z-224">
          <mxGeometry relative="1" as="geometry">
            <mxPoint x="1230" y="679.9999999999998" as="targetPoint" />
          </mxGeometry>
        </mxCell>
        <mxCell id="T6F3rSo89JMpLLN8eH_z-224" value="" style="html=1;dashed=0;whiteSpace=wrap;shape=mxgraph.dfd.dataStoreID;align=left;spacingLeft=3;points=[[0,0],[0.5,0],[1,0],[0,0.5],[1,0.5],[0,1],[0.5,1],[1,1]];" vertex="1" parent="1">
          <mxGeometry x="1130" y="640" width="100" height="30" as="geometry" />
        </mxCell>
        <mxCell id="T6F3rSo89JMpLLN8eH_z-226" value="" style="html=1;dashed=0;whiteSpace=wrap;shape=mxgraph.dfd.dataStoreID;align=left;spacingLeft=3;points=[[0,0],[0.5,0],[1,0],[0,0.5],[1,0.5],[0,1],[0.5,1],[1,1]];" vertex="1" parent="1">
          <mxGeometry x="1280" y="430" width="100" height="30" as="geometry" />
        </mxCell>
      </root>
    </mxGraphModel>
  </diagram>
</mxfile>
